# xmcd
#
# Track frame offsets:
#	150
#	10037
#	20854
#	31736
#	43464
#	55535
#	65857
#	74997
#	85971
#	98070
#	109432
#	121074
#
# Disc length: 1765 seconds
#
# Revision: 0
# Processed by: cddbd v1.5.2PL0 Copyright (c) Steve Scherf et al.
# Submitted via: dBpowerAMP V4.0
#
DISCID=ab06e30c
DTITLE=Johnny Horton - Mean Mean Son Of A Gun
DYEAR=1900
DGENRE=Country
TTITLE0=Mean Mean Son Of A Gun
TTITLE1=Go Wash Your Dirty Feet
TTITLE2=Betty Lorraine
TTITLE3=Coal Smoke Valve Oil And Steam
TTITLE4=Done Movin
TTITLE5=In My Home In Shelby County
TTITLE6=Old Gobbler
TTITLE7=Devilish Love Lights
TTITLE8=Plaid And Calico
TTITLE9=Rhythm Baby Walk
TTITLE10=Smoky Joe's Barbacue
TTITLE11=Words
EXTD=
EXTT0=
EXTT1=
EXTT2=
EXTT3=
EXTT4=
EXTT5=
EXTT6=
EXTT7=
EXTT8=
EXTT9=
EXTT10=
EXTT11=
PLAYORDER=
